# xmcd
#
# Track frame offsets:
#	150
#	20692
#	39163
#	55564
#	76313
#	93290
#	111250
#	131066
#	150861
#	165616
#	183439
#
# Disc length: 2611 seconds
#
# Revision: 452555987
# Processed by: cddbd v1.5.2PL0 Copyright (c) Steve Scherf et al.
# Submitted via: EZCDAudioConverter 8.0.2.1
#
DISCID=790a310b
DTITLE=Nguyên Vũ - Vol 02. Hãy Yêu Người Đến Sau
DYEAR=2003
DGENRE=World Pop
TTITLE0=Nguyên Vũ - Hãy Yêu Người Đến Sau
TTITLE1=Nguyên Vũ - Giấc mơ tình
TTITLE2=Nguyên Vũ - Biết nói sao người hỡi
TTITLE3=Nguyên Vũ, Ngọc Linh - Chọn lựa
TTITLE4=Nguyên Vũ - Đàn oán than
TTITLE5=Nguyên Vũ - Chờ tin
TTITLE6=Nguyên Vũ - Tin
TTITLE7=Nguyên Vũ - Tình yêu thầm kín
TTITLE8=Nguyên Vũ - Thật lòng xin lỗi em
TTITLE9=Nguyên Vũ - Thầm yêu em
TTITLE10=Nguyên Vũ - Nốt nhạc vui
EXTD=
EXTT0=
EXTT1=
EXTT2=
EXTT3=
EXTT4=
EXTT5=
EXTT6=
EXTT7=
EXTT8=
EXTT9=
EXTT10=
PLAYORDER=
